HIERARCHY
ROOT SpineBase
{
  OFFSET 0.000000 0.000000 0.000000
  CHANNELS 6 Xposition Yposition Zposition Zrotation Xrotation Yrotation
  JOINT SpineMid
  {
    OFFSET 0.000000 34.235920 0.000000
    CHANNELS 3 Zrotation Xrotation Yrotation
    JOINT SpineShoulder
    {
      OFFSET -0.327946 25.390574 -0.785098
      CHANNELS 3 Zrotation Xrotation Yrotation
      JOINT Neck
      {
        OFFSET -0.206349 8.393389 -0.613498
        CHANNELS 3 Zrotation Xrotation Yrotation
        JOINT Head
        {
          OFFSET 4.617910 8.929449 6.660954
          CHANNELS 3 Zrotation Xrotation Yrotation
          End Site
          {
            OFFSET 0 0 0
          }
        }
      }
      JOINT ShoulderLeft
      {
        OFFSET -9.587323 -5.556770 -6.796172
        CHANNELS 3 Zrotation Xrotation Yrotation
        JOINT ElbowLeft
        {
          OFFSET -8.361153 -20.781981 8.343237
          CHANNELS 3 Zrotation Xrotation Yrotation
          JOINT WristLeft
          {
            OFFSET 0.835173 -22.320123 8.501054
            CHANNELS 3 Zrotation Xrotation Yrotation
            JOINT HandLeft
            {
              OFFSET -0.068770 -8.227473 3.755951
              CHANNELS 3 Zrotation Xrotation Yrotation
              JOINT HandTipLeft
              {
                OFFSET 0.476070 -7.038172 0.478955
                CHANNELS 3 Zrotation Xrotation Yrotation
                End Site
                {
                  OFFSET 0 0 0
                }
              }
              JOINT ThumbLeft
              {
                OFFSET 0.989364 -4.375787 -1.794194
                CHANNELS 3 Zrotation Xrotation Yrotation
                End Site
                {
                  OFFSET 0 0 0
                }
              }
            }
          }
        }
      }
      JOINT ShoulderRight
      {
        OFFSET 6.959038 -4.830308 -13.940004
        CHANNELS 3 Zrotation Xrotation Yrotation
        JOINT ElbowRight
        {
          OFFSET 6.873169 -23.392028 -1.358081
          CHANNELS 3 Zrotation Xrotation Yrotation
          JOINT WristRight
          {
            OFFSET 5.161937 -22.546038 3.957201
            CHANNELS 3 Zrotation Xrotation Yrotation
            JOINT HandRight
            {
              OFFSET 0.173798 -6.687289 2.071486
              CHANNELS 3 Zrotation Xrotation Yrotation
              JOINT HandTipRight
              {
                OFFSET 1.293028 -7.004711 0.558562
                CHANNELS 3 Zrotation Xrotation Yrotation
                End Site
                {
                  OFFSET 0 0 0
                }
              }
              JOINT ThumbRight
              {
                OFFSET -4.687916 3.422282 -1.578978
                CHANNELS 3 Zrotation Xrotation Yrotation
                End Site
                {
                  OFFSET 0 0 0
                }
              }
            }
          }
        }
      }
    }
  }
  JOINT HipLeft
  {
    OFFSET -5.925192 1.032916 -2.045535
    CHANNELS 3 Zrotation Xrotation Yrotation
    JOINT KneeLeft
    {
      OFFSET -2.986703 -27.637650 0.964096
      CHANNELS 3 Zrotation Xrotation Yrotation
      JOINT AnkleLeft
      {
        OFFSET -0.653173 -25.071157 1.788296
        CHANNELS 3 Zrotation Xrotation Yrotation
        JOINT FootLeft
        {
          OFFSET -4.517352 -2.596319 -13.341608
          CHANNELS 3 Zrotation Xrotation Yrotation
          End Site
          {
            OFFSET 0 0 0
          }
        }
      }
    }
  }
  JOINT HipRight
  {
    OFFSET 4.383935 1.557466 -4.973605
    CHANNELS 3 Zrotation Xrotation Yrotation
    JOINT KneeRight
    {
      OFFSET 4.330704 -24.205343 -4.037604
      CHANNELS 3 Zrotation Xrotation Yrotation
      JOINT AnkleRight
      {
        OFFSET 0.012263 -27.654819 -3.109687
        CHANNELS 3 Zrotation Xrotation Yrotation
        JOINT FootRight
        {
          OFFSET -3.863483 -3.381249 -10.144046
          CHANNELS 3 Zrotation Xrotation Yrotation
          End Site
          {
            OFFSET 0 0 0
          }
        }
      }
    }
  }
}
MOTION
Frames: 9
Frame Time: 0.033333
60.833161 58.437908 277.786832 -0.000000 0.000000 15.855975 -0.000000 0.000000 -15.855975 -0.000000 0.000000 0.000000 -0.000000 0.000000 0.000000 0.000000 0.000000 0.000000 -0.000000 0.000000 0.000000 -0.000000 0.000000 0.000000 -0.000000 0.000000 0.000000 -0.000000 0.000000 0.000000 0.000000 0.000000 0.000000 0.000000 0.000000 0.000000 -0.000000 0.000000 0.000000 -0.000000 0.000000 0.000000 -0.000000 0.000000 0.000000 -0.000000 0.000000 0.000000 0.000000 0.000000 0.000000 0.000000 0.000000 0.000000 -0.000000 0.000000 -15.855975 -0.000000 0.000000 0.000000 -0.000000 0.000000 0.000000 0.000000 0.000000 0.000000 -0.000000 0.000000 -15.855975 -0.000000 0.000000 0.000000 -0.000000 0.000000 0.000000 0.000000 0.000000 0.000000
60.779833 58.480717 277.969279 0.099841 -0.071672 15.616323 -0.076862 0.095902 -15.616196 -0.000000 0.000000 0.000000 -0.000000 0.000000 0.000000 0.000000 0.000000 0.000000 -0.000000 0.000000 0.000000 -0.000000 0.000000 0.000000 -0.000000 0.000000 0.000000 -0.000000 0.000000 0.000000 0.000000 0.000000 0.000000 0.000000 0.000000 0.000000 -0.000000 0.000000 0.000000 -0.000000 0.000000 0.000000 -0.736416 -0.947950 -0.258229 -0.545882 5.282586 1.020079 0.000000 0.000000 0.000000 0.000000 0.000000 0.000000 -0.076862 0.095902 -15.616196 -0.000000 0.000000 0.000000 0.702620 -2.304863 0.467681 0.000000 0.000000 0.000000 -0.076862 0.095902 -15.616196 -0.000000 0.000000 0.000000 -1.263379 3.744159 -0.403341 0.000000 0.000000 0.000000
60.736363 58.519737 278.137968 0.201686 -0.140051 15.420375 -0.157187 0.188636 -15.419870 -0.000000 0.000000 0.000000 0.747288 -0.454943 -0.321240 0.000000 0.000000 0.000000 -0.000000 0.000000 0.000000 -0.000000 0.000000 0.000000 1.343340 -0.037603 0.613998 -2.193135 -0.842921 -0.737166 0.000000 0.000000 0.000000 0.000000 0.000000 0.000000 -0.000000 0.000000 0.000000 -1.248099 0.293167 -0.149195 -0.062569 -1.978697 -0.319833 -1.329345 9.775991 2.002287 0.000000 0.000000 0.000000 0.000000 0.000000 0.000000 -0.157187 0.188636 -15.419870 -0.000000 0.000000 0.000000 1.394976 -4.496418 0.918115 0.000000 0.000000 0.000000 0.101571 1.059572 -15.263352 -0.020363 -0.908328 -0.159498 -1.954882 5.884090 -0.650365 0.000000 0.000000 0.000000
60.702750 58.554968 278.292900 0.305501 -0.205110 15.268903 -0.240704 0.278321 -15.267772 -0.000000 0.000000 0.000000 1.148343 -0.741314 -0.470537 0.000000 0.000000 0.000000 -0.000000 0.000000 0.000000 -0.000000 0.000000 0.000000 2.030322 0.004017 0.926993 -3.184284 -1.080693 -1.090766 0.000000 0.000000 0.000000 0.000000 0.000000 0.000000 -0.000000 0.000000 0.000000 -1.622013 0.321864 -0.207235 -0.156445 -2.602046 -0.438444 -2.197116 13.273819 2.878626 0.000000 0.000000 0.000000 0.000000 0.000000 0.000000 -0.240704 0.278321 -15.267772 -0.000000 0.000000 0.000000 2.013921 -6.387458 1.300045 0.000000 0.000000 0.000000 0.108762 1.497087 -15.049459 -0.021054 -1.267690 -0.223960 -2.262410 6.934757 -0.837015 0.000000 0.000000 0.000000
60.678995 58.586410 278.434074 0.411252 -0.266826 15.162498 -0.327152 0.365097 -15.160498 -0.000000 0.000000 0.000000 1.568626 -1.067956 -0.611839 0.000000 0.000000 0.000000 -0.000000 0.000000 0.000000 -0.000000 0.000000 0.000000 2.725038 0.087665 1.242065 -4.091555 -1.190045 -1.431093 0.000000 0.000000 0.000000 0.000000 0.000000 0.000000 -0.866426 -0.265551 -0.029800 -0.964992 0.536932 -0.221589 -0.339911 -3.046980 -0.541641 -3.004088 15.614401 3.559444 0.000000 0.000000 0.000000 0.000000 0.000000 0.000000 -0.327152 0.365097 -15.160498 -0.000000 0.000000 0.000000 2.485683 -7.780462 1.553529 0.000000 0.000000 0.000000 0.091213 1.879070 -14.889582 -0.015343 -1.570615 -0.279320 -2.261447 7.114326 -1.003583 0.000000 0.000000 0.000000
60.665096 58.614062 278.561490 0.518904 -0.325174 15.101569 -0.416280 0.449123 -15.098465 -0.000000 0.000000 0.000000 2.008950 -1.435775 -0.744708 0.000000 0.000000 0.000000 -0.000000 0.000000 0.000000 -0.000000 0.000000 0.000000 3.425467 0.214392 1.557659 -4.907267 -1.171169 -1.756674 0.000000 0.000000 0.000000 0.000000 0.000000 0.000000 -0.933758 -0.375626 -0.059370 -0.942834 0.517634 -0.229841 -0.634905 -3.342480 -0.635108 -3.625238 16.707461 3.958961 0.000000 0.000000 0.000000 0.000000 0.000000 0.000000 -0.416280 0.449123 -15.098465 -0.000000 0.000000 0.000000 2.743475 -8.509386 1.625564 0.000000 0.000000 0.000000 0.051155 2.208713 -14.783194 -0.003054 -1.820579 -0.326161 -1.961573 6.455451 -1.167441 0.000000 0.000000 0.000000
60.665541 58.640984 278.662075 0.620091 -0.368524 15.200687 -0.501791 0.518200 -15.196424 -0.000000 0.000000 0.000000 2.425096 -1.988609 -0.756731 0.000000 0.000000 0.000000 -0.000000 0.000000 0.000000 -0.000000 0.000000 0.000000 4.352603 0.422680 1.972135 -5.553356 -1.419494 -2.174611 0.000000 0.000000 0.000000 0.000000 0.000000 0.000000 -1.050430 -0.506014 -0.092606 -0.269980 0.180221 -0.215628 -2.551566 -2.754723 -1.052858 -3.429550 14.777620 3.984571 0.000000 0.000000 0.000000 0.000000 0.000000 0.000000 -0.501791 0.518200 -15.196424 0.343403 1.101421 -0.007508 2.581499 -10.068446 1.651813 0.000000 0.000000 0.000000 0.005480 2.471903 -14.845745 0.010147 -2.018410 -0.363737 -1.766228 6.209644 -1.446234 0.000000 0.000000 0.000000
60.675388 58.667614 278.753704 0.732111 -0.426727 15.304834 -0.593545 0.604805 -15.298975 -0.000000 0.000000 0.000000 2.948607 -2.448315 -0.896851 0.000000 0.000000 0.000000 -0.000000 0.000000 0.000000 -0.000000 0.000000 0.000000 4.947372 0.977786 2.218698 -6.288711 -1.633703 -2.470167 0.000000 0.000000 0.000000 0.000000 0.000000 0.000000 -1.006711 -0.646384 -0.137556 0.151234 0.285379 -0.099892 -3.289198 -3.703405 -1.269798 -2.772394 12.537047 3.312809 0.000000 0.000000 0.000000 0.000000 0.000000 0.000000 -0.593545 0.604805 -15.298975 0.329558 1.458785 -0.018714 2.477310 -10.014439 1.426085 0.000000 0.000000 0.000000 -0.087100 2.679305 -14.922827 0.817735 -2.365959 -0.446613 -1.412239 3.517649 -1.600003 0.000000 0.000000 0.000000
60.691178 58.684294 278.845429 0.850281 -0.482640 15.310827 -0.129210 0.061499 -15.290746 -0.004481 0.029235 0.024794 2.720511 -2.363885 -1.131440 0.000000 0.000000 0.000000 -0.704616 0.428711 -0.038343 1.032628 0.272997 0.401289 4.428421 0.835259 2.061216 -6.564611 -1.892944 -2.703396 0.000000 0.000000 0.000000 0.000000 0.000000 0.000000 -1.527981 -0.391783 -0.232043 0.820097 0.823782 0.188069 -3.834042 -4.941379 -1.463721 -2.731275 11.776508 2.876918 0.000000 0.000000 0.000000 0.000000 0.000000 0.000000 -0.692711 0.689983 -15.303074 0.255859 1.813720 -0.033096 2.161817 -9.149726 1.036976 0.000000 0.000000 0.000000 -0.201682 2.869462 -14.903241 0.085966 -2.232396 -0.413411 3.210915 -7.424184 -1.205470 0.000000 0.000000 0.000000
